<svg width="70" height="52" viewBox="0 0 70 52" fill="none" xmlns="http://www.w3.org/2000/svg">
<g id="Group 1728278010">
<path id="Vector" d="M40.2813 25.1466C41.0437 25.1466 41.6683 25.3901 42.1555 25.8771C42.6426 26.3855 42.8862 26.9995 42.8862 27.7198C42.8862 28.4401 42.6426 29.0223 42.1555 29.5306C41.6472 30.0389 41.0226 30.293 40.2813 30.293C39.6037 30.293 39.0107 30.0282 38.5022 29.4988C37.994 28.9905 37.7399 28.3975 37.7399 27.7198C37.7399 26.9998 37.9834 26.3855 38.4704 25.8771C38.9575 25.3901 39.5611 25.1466 40.2811 25.1466L40.2813 25.1466Z" fill="#DAC4B4"/>
<path id="Vector_2" d="M49.7164 25.1466C50.4787 25.1466 51.1034 25.3901 51.5905 25.8771C52.0777 26.3855 52.3213 26.9995 52.3213 27.7198C52.3213 28.4401 52.0777 29.0223 51.5905 29.5306C51.0823 30.0389 50.4577 30.293 49.7164 30.293C49.0388 30.293 48.4458 30.0282 47.9373 29.4988C47.429 28.9905 47.1749 28.3975 47.1749 27.7198C47.1749 26.9998 47.4185 26.3855 47.9054 25.8771C48.3926 25.3901 48.9962 25.1466 49.7161 25.1466L49.7164 25.1466Z" fill="#DAC4B4"/>
<path id="Vector_3" d="M59.1514 25.1466C59.9138 25.1466 60.5384 25.3901 61.0256 25.8771C61.5128 26.3855 61.7563 26.9995 61.7563 27.7198C61.7563 28.4401 61.5128 29.0223 61.0256 29.5306C60.5174 30.0389 59.8927 30.293 59.1514 30.293C58.4739 30.293 57.8808 30.0282 57.3723 29.4988C56.8641 28.9905 56.61 28.3975 56.61 27.7198C56.61 26.9998 56.8536 26.3855 57.3405 25.8771C57.8277 25.3901 58.4312 25.1466 59.1512 25.1466L59.1514 25.1466Z" fill="#DAC4B4"/>
<g id="Group">
<path id="Vector_4" d="M39.1356 8.14055C37.3704 3.95974 33.2319 1.01953 28.4208 1.01953H12.3796C5.968 1.01953 0.75 6.23753 0.75 12.6491V37.9452C0.75 38.5628 1.11654 39.1095 1.68358 39.343C1.87389 39.42 2.0684 39.457 2.25754 39.457C2.64927 39.457 3.03123 39.3031 3.31547 39.0148L3.31934 39.0109L10.9772 31.3591L11.1968 31.1397H11.5073H25.0374C25.0118 30.8017 24.9964 30.4574 24.9964 30.1064V30.0365H11.3666C10.9603 30.0365 10.5852 30.1917 10.3013 30.4749L39.1356 8.14055ZM39.1356 8.14055H37.9277C36.2378 4.58856 32.6146 2.12359 28.4208 2.12359H12.3796C6.57541 2.12359 1.85406 6.84494 1.85406 12.6491V37.1046V38.9141L3.13414 37.6352L10.301 30.4752L39.1356 8.14055Z" fill="#DAC4B4" stroke="#DAC4B4" stroke-width="1.5"/>
<path id="Vector_5" d="M59.0189 42.931L58.7992 42.7113H58.4885H55.6349H41.5776C40.7879 42.7113 40.0167 42.63 39.2685 42.4791C33.9568 41.4057 29.9463 36.7014 29.9463 31.0809V24.225C29.9463 17.8126 35.1643 12.5938 41.5776 12.5938H57.6197C59.1082 12.5938 60.5295 12.8855 61.8439 13.4006C66.1752 15.0981 69.2501 19.307 69.2501 24.225V49.522C69.2501 50.1356 68.8856 50.6811 68.3186 50.9159L68.3174 50.9164C68.1295 50.9945 67.9333 51.0321 67.74 51.0321C67.3498 51.0321 66.9666 50.8796 66.6758 50.5888L66.0548 49.9678L66.0548 49.9678L59.0189 42.931ZM66.8666 49.2178L68.1469 50.4981V48.6874V24.225C68.1469 18.4201 63.4247 13.6978 57.6205 13.6978H41.5776C35.7717 13.6978 31.0503 18.4201 31.0503 24.225V31.0809C31.0503 36.8859 35.7717 41.6072 41.5776 41.6072H58.6318C59.0355 41.6072 59.4118 41.763 59.6985 42.0497L66.8666 49.2178Z" fill="#DAC4B4" stroke="#DAC4B4" stroke-width="1.5"/>
</g>
</g>
</svg>
