<svg width="72" height="54" viewBox="0 0 72 54" fill="none" xmlns="http://www.w3.org/2000/svg">
<g id="Group 1728278010">
<path id="Vector" d="M41.2813 26.1466C42.0437 26.1466 42.6683 26.3901 43.1555 26.8771C43.6426 27.3855 43.8862 27.9995 43.8862 28.7198C43.8862 29.4401 43.6426 30.0223 43.1555 30.5306C42.6472 31.0389 42.0226 31.293 41.2813 31.293C40.6037 31.293 40.0107 31.0282 39.5022 30.4988C38.994 29.9905 38.7399 29.3975 38.7399 28.7198C38.7399 27.9998 38.9834 27.3855 39.4704 26.8771C39.9575 26.3901 40.5611 26.1466 41.2811 26.1466L41.2813 26.1466Z" fill="#2D100A"/>
<path id="Vector_2" d="M50.7164 26.1466C51.4787 26.1466 52.1034 26.3901 52.5905 26.8771C53.0777 27.3855 53.3213 27.9995 53.3213 28.7198C53.3213 29.4401 53.0777 30.0223 52.5905 30.5306C52.0823 31.0389 51.4577 31.293 50.7164 31.293C50.0388 31.293 49.4458 31.0282 48.9373 30.4988C48.429 29.9905 48.1749 29.3975 48.1749 28.7198C48.1749 27.9998 48.4185 27.3855 48.9054 26.8771C49.3926 26.3901 49.9962 26.1466 50.7161 26.1466L50.7164 26.1466Z" fill="#2D100A"/>
<path id="Vector_3" d="M60.1514 26.1466C60.9138 26.1466 61.5384 26.3901 62.0256 26.8771C62.5128 27.3855 62.7563 27.9995 62.7563 28.7198C62.7563 29.4401 62.5128 30.0223 62.0256 30.5306C61.5174 31.0389 60.8927 31.293 60.1514 31.293C59.4739 31.293 58.8808 31.0282 58.3723 30.4988C57.8641 29.9905 57.61 29.3975 57.61 28.7198C57.61 27.9998 57.8536 27.3855 58.3405 26.8771C58.8277 26.3901 59.4312 26.1466 60.1512 26.1466L60.1514 26.1466Z" fill="#2D100A"/>
<g id="Group">
<path id="Vector_4" d="M2.34283 41.176L2.34337 41.1762C2.63972 41.2965 2.94963 41.357 3.25754 41.357C3.88513 41.357 4.49924 41.11 4.95596 40.6471C4.95607 40.647 4.95618 40.6469 4.95628 40.6468L12.5694 33.0397H26.8656H27.0347L27.0146 32.8717C26.9447 32.2904 26.8964 31.7049 26.8964 31.1064V30.2865V30.1365H26.7464H12.3666C11.7233 30.1365 11.119 30.3853 10.6653 30.8382L10.6652 30.8382L3.75406 37.7427V13.6491C3.75406 8.342 8.07246 4.02359 13.3796 4.02359H29.4208C33.4168 4.02359 36.8503 6.4725 38.3031 9.9484L38.3416 10.0405H38.4415H41.212H41.4174L41.3549 9.8449C39.7403 4.79109 35.0034 1.11953 29.4208 1.11953H13.3796C6.47094 1.11953 0.85 6.74047 0.85 13.6491V38.9452C0.85 39.927 1.43636 40.8037 2.34283 41.176Z" fill="#2D100A" stroke="#2D100A" stroke-width="0.3"/>
<path id="Vector_5" d="M40.0905 44.3613L40.0905 44.3613C40.895 44.5236 41.7258 44.6113 42.5776 44.6113H56.6349H59.4264L66.4184 51.6042L67.0394 52.2252C67.501 52.6868 68.114 52.9321 68.74 52.9321C69.0502 52.9321 69.3639 52.8717 69.6628 52.7474C70.5663 52.3734 71.1501 51.4996 71.1501 50.522V25.225C71.1501 19.9219 67.8343 15.3898 63.1723 13.5627L63.1176 13.7023L63.1723 13.5627C61.7595 13.009 60.2271 12.6937 58.6197 12.6937H42.5776C35.6672 12.6937 30.0463 18.3156 30.0463 25.225V32.0809C30.0463 38.139 34.3679 43.205 40.0905 44.3613ZM68.2469 25.225V49.3253L61.3349 42.4133C60.8797 41.9581 60.2746 41.7072 59.6318 41.7072H42.5776C37.2687 41.7072 32.9503 37.3888 32.9503 32.0809V25.225C32.9503 19.9171 37.2688 15.5978 42.5776 15.5978H58.6205C63.9276 15.5978 68.2469 19.9171 68.2469 25.225Z" fill="#2D100A" stroke="#2D100A" stroke-width="0.3"/>
</g>
</g>
</svg>
