<svg width="51" height="51" viewBox="0 0 51 51" fill="none" xmlns="http://www.w3.org/2000/svg">
<g id="Group 1728277910">
<path id="Vector" d="M25.3017 50.209C11.4612 50.209 0.200684 38.9494 0.200684 25.1088C0.200684 11.2683 11.4612 0.0078125 25.3017 0.0078125C39.1422 0.0078125 50.4027 11.2683 50.4027 25.1088C50.4027 38.9494 39.1422 50.209 25.3017 50.209ZM25.3017 4.57141C13.9776 4.57141 4.76429 13.7839 4.76429 25.1088C4.76429 36.4337 13.9768 45.6462 25.3017 45.6462C36.6266 45.6462 45.8391 36.4337 45.8391 25.1088C45.8391 13.7839 36.6266 4.57141 25.3017 4.57141Z" fill="#2D100A"/>
<path id="Vector_2" d="M32.2563 35.8874C31.6723 35.8874 31.0884 35.6641 30.6431 35.2185L23.6889 28.2643L23.02 26.6511V12.3074C23.02 11.0474 24.0417 10.0254 25.3021 10.0254C26.5621 10.0254 27.5841 11.047 27.5841 12.3074V25.7052L33.8707 31.9906C34.7616 32.8814 34.7616 34.3261 33.8707 35.2182C33.4252 35.6647 32.8403 35.888 32.2563 35.888L32.2563 35.8874Z" fill="#2D100A"/>
</g>
</svg>
