<svg width="332" height="271" viewBox="0 0 332 271" fill="none" xmlns="http://www.w3.org/2000/svg">
<path d="M99.9789 144.074H11.0146V435.655H99.9789V144.074Z" fill="#2D100A"/>
<path d="M320.936 144.422H231.972V436.003H320.936V144.422Z" fill="#2D100A"/>
<path d="M54.815 -0.00127139C71.258 -0.00126995 84.7305 5.25773 95.2379 15.7757C105.745 26.7536 110.999 40.0147 110.999 55.5697C110.999 71.1247 105.745 83.6987 95.2379 94.6765C84.2759 105.654 70.8034 111.141 54.815 111.141C40.2008 111.141 27.41 105.422 16.4428 93.9894C5.48081 83.0116 -0.000164268 70.205 -0.000162989 55.5697C-0.000161629 40.0199 5.25358 26.7535 15.7557 15.7757C26.2631 5.25773 39.2812 -0.00127275 54.8097 -0.00127139L54.815 -0.00127139Z" fill="url(#paint0_linear_461_773)"/>
<path d="M277.141 111.142C260.693 111.142 247.22 105.883 236.713 95.3649C226.205 84.3871 220.957 71.1259 220.957 55.5709C220.957 40.0159 226.211 27.4419 236.713 16.4641C247.675 5.48627 261.147 0 277.141 0C291.755 0 304.546 5.71883 315.508 17.1512C326.47 28.129 331.951 40.9356 331.951 55.5709C331.951 71.1207 326.697 84.3871 316.195 95.3649C305.688 105.883 292.67 111.142 277.141 111.142Z" fill="url(#paint1_linear_461_773)"/>
<defs>
<linearGradient id="paint0_linear_461_773" x1="110.999" y1="55.1406" x2="-0.000976733" y2="55.1406" gradientUnits="userSpaceOnUse">
<stop stop-color="#DAC4B4"/>
<stop offset="1" stop-color="#2D100A"/>
</linearGradient>
<linearGradient id="paint1_linear_461_773" x1="332" y1="56" x2="221" y2="56" gradientUnits="userSpaceOnUse">
<stop stop-color="#2D100A"/>
<stop offset="1" stop-color="#DAC4B4"/>
</linearGradient>
</defs>
</svg>
