<svg width="77" height="31" viewBox="0 0 77 31" fill="none" xmlns="http://www.w3.org/2000/svg">
<g id="Group 1728277938">
<rect id="Rectangle 11" y="0.363281" width="40.8571" height="29.8571" rx="14.9286" fill="#2D100A"/>
<rect id="Rectangle 12" x="0.7" y="1.06328" width="75.6" height="28.4571" rx="14.2286" stroke="#2D100A" stroke-width="1.4"/>
<g id="Group 1728277904">
<path id="Vector" d="M24.5517 19.4116C27.0465 16.9169 27.0465 12.8722 24.5517 10.3774C22.057 7.88273 18.0123 7.88273 15.5176 10.3774C13.0229 12.8722 13.0229 16.9169 15.5176 19.4116C18.0123 21.9063 22.057 21.9063 24.5517 19.4116Z" fill="#DAC4B4"/>
<path id="Vector_2" d="M19.2217 4.31768V6.09463C19.2217 6.54443 19.586 6.90841 20.0355 6.90841C20.4849 6.90841 20.8492 6.54443 20.8492 6.09463V4.31768C20.8492 3.86788 20.4849 3.50391 20.0355 3.50391C19.586 3.50391 19.2217 3.86788 19.2217 4.31768Z" fill="#DAC4B4"/>
<path id="Vector_3" d="M11.9791 6.83997C11.6613 7.15785 11.6613 7.67282 11.9791 7.9907L13.2356 9.24713C13.3945 9.40607 13.6027 9.48554 13.8109 9.48554C14.0191 9.48554 14.2273 9.40607 14.3863 9.24713C14.7042 8.92925 14.7042 8.41428 14.3863 8.0964L13.1299 6.83997C12.812 6.52209 12.297 6.52209 11.9791 6.83997Z" fill="#DAC4B4"/>
<path id="Vector_4" d="M12.0466 14.8958C12.0466 14.446 11.6822 14.082 11.2328 14.082H9.45587C9.00646 14.082 8.64209 14.446 8.64209 14.8958C8.64209 15.3456 9.00646 15.7096 9.45587 15.7096H11.2328C11.6822 15.7096 12.0466 15.3456 12.0466 14.8958Z" fill="#DAC4B4"/>
<path id="Vector_5" d="M13.2356 20.5431L11.9791 21.7995C11.6613 22.1174 11.6613 22.6324 11.9791 22.9503C12.1381 23.1092 12.3463 23.1887 12.5545 23.1887C12.7627 23.1887 12.9709 23.1092 13.1299 22.9503L14.3863 21.6938C14.7042 21.3759 14.7042 20.861 14.3863 20.5431C14.0684 20.2252 13.5534 20.2252 13.2356 20.5431Z" fill="#DAC4B4"/>
<path id="Vector_6" d="M20.0355 22.8867C19.586 22.8867 19.2217 23.2507 19.2217 23.7005V25.4774C19.2217 25.9272 19.586 26.2912 20.0355 26.2912C20.4849 26.2912 20.8492 25.9272 20.8492 25.4774V23.7005C20.8492 23.2507 20.4849 22.8867 20.0355 22.8867Z" fill="#DAC4B4"/>
<path id="Vector_7" d="M26.8349 20.5431C26.5171 20.2252 26.0021 20.2252 25.6842 20.5431C25.3663 20.861 25.3663 21.3759 25.6842 21.6938L26.9406 22.9503C27.0996 23.1092 27.3078 23.1887 27.516 23.1887C27.7242 23.1887 27.9324 23.1092 28.0914 22.9503C28.4092 22.6324 28.4092 22.1174 28.0914 21.7995L26.8349 20.5431Z" fill="#DAC4B4"/>
<path id="Vector_8" d="M30.6142 14.082H28.8372C28.3878 14.082 28.0234 14.446 28.0234 14.8958C28.0234 15.3456 28.3878 15.7096 28.8372 15.7096H30.6142C31.0636 15.7096 31.4279 15.3456 31.4279 14.8958C31.4279 14.446 31.0636 14.082 30.6142 14.082Z" fill="#DAC4B4"/>
<path id="Vector_9" d="M26.9406 6.83997L25.6842 8.0964C25.3663 8.41428 25.3663 8.92925 25.6842 9.24713C25.8431 9.40607 26.0514 9.48554 26.2596 9.48554C26.4678 9.48554 26.676 9.40607 26.8349 9.24713L28.0914 7.9907C28.4092 7.67282 28.4092 7.15785 28.0914 6.83997C27.7735 6.52209 27.2585 6.52209 26.9406 6.83997Z" fill="#DAC4B4"/>
</g>
<path id="Vector_10" d="M54.9436 5.07626C60.6336 5.07626 65.2146 9.63152 65.2146 15.2895C65.2146 20.9475 60.6336 25.5028 54.9436 25.5028C53.883 25.5028 52.8214 25.3586 51.8574 25.0711C56.0526 23.776 59.0421 19.8918 59.0421 15.2885C59.0421 10.6852 56.0526 6.80098 51.8574 5.50591C52.8224 5.21846 53.883 5.07422 54.9436 5.07422V5.07626Z" fill="#2D100A"/>
</g>
</svg>
