<svg width="69" height="27" viewBox="0 0 69 27" fill="none" xmlns="http://www.w3.org/2000/svg">
<g id="Group 1728277940">
<rect id="Rectangle 11" x="0.5" y="0.5" width="61" height="26" rx="13" stroke="#DAC4B4"/>
<rect id="Rectangle 12" x="33" width="36" height="27" rx="13.5" fill="#DAC4B4"/>
<g id="Group 1728277904">
<path id="Vector" d="M21.8565 17.068C24.0773 14.8472 24.0773 11.2465 21.8565 9.0257C19.6356 6.80487 16.035 6.80487 13.8141 9.02571C11.5933 11.2465 11.5933 14.8472 13.8141 17.068C16.035 19.2889 19.6356 19.2889 21.8565 17.068Z" fill="#DAC4B4"/>
<path id="Vector_2" d="M17.1113 3.63068V5.21255C17.1113 5.61297 17.4357 5.93699 17.8358 5.93699C18.2358 5.93699 18.5602 5.61297 18.5602 5.21255V3.63068C18.5602 3.23027 18.2358 2.90625 17.8358 2.90625C17.4357 2.90625 17.1113 3.23027 17.1113 3.63068Z" fill="#DAC4B4"/>
<path id="Vector_3" d="M10.6639 5.8763C10.3809 6.15927 10.3809 6.61771 10.6639 6.90069L11.7824 8.01918C11.9239 8.16067 12.1092 8.23142 12.2946 8.23142C12.4799 8.23142 12.6653 8.16067 12.8068 8.01918C13.0898 7.7362 13.0898 7.27776 12.8068 6.99479L11.6883 5.8763C11.4053 5.59332 10.9469 5.59332 10.6639 5.8763Z" fill="#DAC4B4"/>
<path id="Vector_4" d="M10.7241 13.0487C10.7241 12.6482 10.3997 12.3242 9.99966 12.3242H8.41779C8.01772 12.3242 7.69336 12.6482 7.69336 13.0487C7.69336 13.4491 8.01772 13.7731 8.41779 13.7731H9.99966C10.3997 13.7731 10.7241 13.4491 10.7241 13.0487Z" fill="#DAC4B4"/>
<path id="Vector_5" d="M11.7824 18.0755L10.6639 19.194C10.3809 19.477 10.3809 19.9354 10.6639 20.2184C10.8054 20.3599 10.9907 20.4306 11.1761 20.4306C11.3614 20.4306 11.5468 20.3599 11.6883 20.2184L12.8068 19.0999C13.0898 18.8169 13.0898 18.3585 12.8068 18.0755C12.5238 17.7925 12.0654 17.7925 11.7824 18.0755Z" fill="#DAC4B4"/>
<path id="Vector_6" d="M17.8358 20.1602C17.4357 20.1602 17.1113 20.4842 17.1113 20.8846V22.4665C17.1113 22.8669 17.4357 23.1909 17.8358 23.1909C18.2358 23.1909 18.5602 22.8669 18.5602 22.4665V20.8846C18.5602 20.4842 18.2358 20.1602 17.8358 20.1602Z" fill="#DAC4B4"/>
<path id="Vector_7" d="M23.889 18.0755C23.606 17.7925 23.1476 17.7925 22.8646 18.0755C22.5816 18.3585 22.5816 18.8169 22.8646 19.0999L23.9831 20.2184C24.1246 20.3599 24.3099 20.4306 24.4953 20.4306C24.6806 20.4306 24.866 20.3599 25.0075 20.2184C25.2904 19.9354 25.2904 19.477 25.0075 19.194L23.889 18.0755Z" fill="#DAC4B4"/>
<path id="Vector_8" d="M27.2531 12.3242H25.6712C25.2711 12.3242 24.9468 12.6482 24.9468 13.0487C24.9468 13.4491 25.2711 13.7731 25.6712 13.7731H27.2531C27.6531 13.7731 27.9775 13.4491 27.9775 13.0487C27.9775 12.6482 27.6531 12.3242 27.2531 12.3242Z" fill="#DAC4B4"/>
<path id="Vector_9" d="M23.9831 5.8763L22.8646 6.99479C22.5816 7.27776 22.5816 7.7362 22.8646 8.01918C23.0061 8.16067 23.1914 8.23142 23.3768 8.23142C23.5621 8.23142 23.7475 8.16067 23.889 8.01918L25.0075 6.90069C25.2904 6.61771 25.2904 6.15927 25.0075 5.8763C24.7245 5.59332 24.266 5.59332 23.9831 5.8763Z" fill="#DAC4B4"/>
</g>
<path id="Vector_10" d="M48.9115 4.30651C53.9767 4.30651 58.0548 8.36166 58.0548 13.3985C58.0548 18.4353 53.9767 22.4905 48.9115 22.4905C47.9673 22.4905 47.0222 22.3621 46.1641 22.1062C49.8987 20.9533 52.56 17.4955 52.56 13.3976C52.56 9.29963 49.8987 5.84187 46.1641 4.68898C47.0231 4.43309 47.9673 4.30469 48.9115 4.30469V4.30651Z" fill="#2D100A"/>
</g>
</svg>
