<svg width="176" height="121" viewBox="0 0 176 121" fill="none" xmlns="http://www.w3.org/2000/svg">
<g id="logo ii">
<path id="Vector" d="M53.4826 75.6719H6.75586V228.819H53.4826V75.6719Z" fill="#2D100A"/>
<path id="Vector_2" d="M169.536 75.8555H122.81V229.003H169.536V75.8555Z" fill="#2D100A"/>
<path id="Vector_3" d="M29.7614 -0.000162797C38.3978 -0.000162042 45.474 2.76203 50.9928 8.2864C56.5116 14.0523 59.271 21.0175 59.271 29.1874C59.271 37.3574 56.5116 43.9617 50.9928 49.7275C45.2352 55.4934 38.159 58.375 29.7614 58.375C22.0856 58.375 15.3675 55.3713 9.60713 49.3667C3.84957 43.6008 0.970789 36.8743 0.97079 29.1874C0.97079 21.0202 3.73022 14.0523 9.24627 8.2864C14.7651 2.76202 21.6026 -0.00016351 29.7586 -0.000162797L29.7614 -0.000162797Z" fill="url(#paint0_linear_257_3183)"/>
<path id="Vector_4" d="M145.812 -0.000162797C154.451 -0.000162042 161.527 2.76203 167.046 8.2864C172.565 14.0523 175.322 21.0175 175.322 29.1874C175.322 37.3574 172.562 43.9617 167.046 49.7275C161.289 55.4934 154.213 58.375 145.812 58.375C138.136 58.375 131.418 55.3713 125.661 49.3667C119.903 43.6008 117.024 36.8743 117.024 29.1874C117.024 21.0202 119.784 14.0523 125.3 8.2864C130.819 2.76202 137.656 -0.00016351 145.812 -0.000162797Z" fill="url(#paint1_linear_257_3183)"/>
</g>
<defs>
<linearGradient id="paint0_linear_257_3183" x1="59.271" y1="28.9621" x2="0.970362" y2="28.9621" gradientUnits="userSpaceOnUse">
<stop stop-color="#DAC4B4"/>
<stop offset="1" stop-color="#2D100A"/>
</linearGradient>
<linearGradient id="paint1_linear_257_3183" x1="116.999" y1="28.9621" x2="175.299" y2="28.9621" gradientUnits="userSpaceOnUse">
<stop stop-color="#DAC4B4"/>
<stop offset="1" stop-color="#2D100A"/>
</linearGradient>
</defs>
</svg>
