<svg width="176" height="121" viewBox="0 0 176 121" fill="none" xmlns="http://www.w3.org/2000/svg">
<path d="M53.4826 75.6719H6.75586V228.819H53.4826V75.6719Z" fill="#DAC4B4"/>
<path d="M169.536 75.8555H122.81V229.003H169.536V75.8555Z" fill="#DAC4B4"/>
<path d="M30.4803 58.3752C21.8439 58.3752 14.7677 55.613 9.24892 50.0886C3.7301 44.3227 0.970703 37.3575 0.970703 29.1876C0.970703 21.0176 3.7301 14.4133 9.24892 8.64745C15.0065 2.88156 22.0827 0 30.4803 0C38.1561 0 44.8742 3.00371 50.6346 9.00834C56.3921 14.7742 59.2709 21.5006 59.2709 29.1876C59.2709 37.3548 56.5115 44.3227 50.9954 50.0886C45.4766 55.613 38.6392 58.3752 30.4831 58.3752H30.4803Z" fill="url(#paint0_linear_257_3054)"/>
<path d="M146.534 58.3752C137.895 58.3752 130.819 55.613 125.3 50.0886C119.781 44.3227 117.024 37.3575 117.024 29.1876C117.024 21.0176 119.784 14.4133 125.3 8.64745C131.057 2.88156 138.134 0 146.534 0C154.21 0 160.928 3.00371 166.686 9.00834C172.443 14.7742 175.322 21.5006 175.322 29.1876C175.322 37.3548 172.562 44.3227 167.046 50.0886C161.528 55.613 154.69 58.3752 146.534 58.3752Z" fill="url(#paint1_linear_257_3054)"/>
<defs>
<linearGradient id="paint0_linear_257_3054" x1="0.970703" y1="29.4129" x2="59.2713" y2="29.4129" gradientUnits="userSpaceOnUse">
<stop stop-color="#DAC4B4"/>
<stop offset="1" stop-color="#2D100A"/>
</linearGradient>
<linearGradient id="paint1_linear_257_3054" x1="175.348" y1="29.4129" x2="117.047" y2="29.4129" gradientUnits="userSpaceOnUse">
<stop stop-color="#DAC4B4"/>
<stop offset="1" stop-color="#2D100A"/>
</linearGradient>
</defs>
</svg>
