<svg width="61" height="59" viewBox="0 0 61 59" fill="none" xmlns="http://www.w3.org/2000/svg">
<path d="M9.65413 58.1496L56.9966 3.60455C57.729 2.73664 57.6624 1.40139 56.7968 0.667001C55.9312 -0.0673868 54.5995 -0.000624418 53.867 0.867289L42.0814 14.4868C38.4857 13.0181 34.8901 12.2837 31.1613 12.2837C13.9156 12.2837 1.86361 28.4402 1.39751 29.1078C0.798235 29.8422 0.864821 30.8437 1.39751 31.5781C6.0585 37.3864 10.9858 41.6592 15.9798 44.4632L6.5246 55.4123C5.79216 56.2802 5.85875 57.6155 6.72436 58.3498C7.12388 58.6837 7.58997 58.8839 8.05607 58.8839C8.65535 58.8172 9.25462 58.6169 9.65413 58.1496ZM25.5681 33.4474C25.0354 32.5127 24.7025 31.4445 24.7025 30.3096C24.7025 26.9714 27.4325 24.2342 30.7618 24.2342C31.6274 24.2342 32.4264 24.4345 33.1589 24.7015L25.5681 33.4474ZM5.72558 30.2428C8.78852 26.6376 18.5766 16.3562 31.1613 16.3562C33.8913 16.3562 36.5547 16.8235 39.1516 17.7582L35.9555 21.4969C34.424 20.5622 32.6928 20.0949 30.7618 20.0949C25.1686 20.0949 20.5742 24.7015 20.5742 30.3096C20.5742 32.713 21.4398 34.9162 22.7715 36.652L18.7764 41.2586C14.3151 38.9219 9.98706 35.25 5.72558 30.2428ZM60.1261 28.9743C60.7253 29.7087 60.7253 30.7769 60.1927 31.5113C59.66 32.1789 47.6746 48.3355 30.4289 48.3355C28.3647 48.3355 26.3006 48.0684 24.303 47.6011L27.4991 43.9291C28.4979 44.0627 29.4967 44.1294 30.4954 44.1294C42.947 44.1962 52.7351 33.9148 55.798 30.3096C52.8017 26.7712 49.7387 23.9671 46.6758 21.764L49.4058 18.6261C53.068 21.2966 56.6636 24.7015 60.1261 28.9743Z" fill="#2D100A"/>
</svg>
