<svg width="153" height="58" viewBox="0 0 153 58" fill="none" xmlns="http://www.w3.org/2000/svg">
<path d="M14.9415 13.8438H34.0476V22.4548H28.4279C29.3092 24.3096 29.7504 26.2523 29.7504 28.2837C29.7504 32.3461 28.2958 35.8349 25.3868 38.7491C22.4778 41.6194 18.9741 43.0543 14.8752 43.0543C10.7763 43.0543 7.27209 41.6194 4.36356 38.7491C1.45452 35.8344 0 32.3461 0 28.2832C0 24.2203 1.45452 20.9086 4.36356 18.0827C7.31646 15.2567 10.8426 13.8438 14.9415 13.8438ZM10.6442 32.39C11.834 33.5381 13.2447 34.1122 14.8752 34.1122C16.5056 34.1122 17.8944 33.5381 19.0403 32.39C20.2302 31.2418 20.8253 29.8727 20.8253 28.2832C20.8253 26.8258 20.2302 25.5455 19.0403 24.4413C17.8944 23.3376 16.5062 22.7854 14.8752 22.7854C13.2442 22.7854 11.834 23.3376 10.6442 24.4413C9.49825 25.545 8.92551 26.8258 8.92551 28.2832C8.92551 29.8727 9.49825 31.2418 10.6442 32.39ZM10.9089 47.4254C12.0549 48.4853 13.3992 49.015 14.942 49.015C16.4847 49.015 17.8291 48.4853 18.9751 47.4254C20.121 46.3656 20.7601 45.0189 20.8922 43.385H29.8172C29.6851 47.4035 28.1862 50.7152 25.3215 53.3207C22.4568 55.9701 18.997 57.2948 14.942 57.2948C10.887 57.2948 7.42713 55.9701 4.56246 53.3207C1.69677 50.7157 0.19839 47.4035 0.0663 43.3855H8.9913C9.12339 45.0194 9.76242 46.3666 10.9084 47.4259L10.9089 47.4254Z" fill="#E4D2C4"/>
<path d="M62.8412 13.9085H71.4357V42.0593H62.8412V39.2109C62.577 40.1386 61.7172 41.0219 60.2627 41.8603C58.8525 42.6553 57.1114 43.0523 55.0397 43.0523C51.2494 43.0523 48.0099 41.7057 45.3212 39.0119C42.6325 36.3181 41.2662 32.7635 41.2223 28.3475C41.1779 23.9759 42.4565 20.333 45.057 17.4183C47.6575 14.4597 50.897 12.9584 54.7756 12.914C56.759 12.8701 58.4557 13.2013 59.8664 13.9075C61.2765 14.5699 62.2685 15.4088 62.8412 16.4247V13.9075V13.9085ZM51.9986 32.5211C53.2328 33.7575 54.6873 34.376 56.3622 34.376C58.037 34.376 59.4691 33.78 60.6594 32.5874C61.8936 31.351 62.5107 29.938 62.5107 28.3485V27.8188C62.5107 26.0528 61.9156 24.5954 60.7257 23.4473C59.5359 22.2552 58.0814 21.6587 56.3622 21.6587C54.643 21.6587 53.167 22.2767 51.9328 23.5136C50.743 24.7056 50.1478 26.1849 50.1478 27.9515C50.1478 29.7181 50.7644 31.2413 51.9986 32.5216V32.5211Z" fill="#E4D2C4"/>
<path d="M91.8163 13.9102H83.2319V42.0609H91.8163V13.9102Z" fill="#E4D2C4"/>
<path d="M113.137 13.9453H104.552V42.0961H113.137V13.9453Z" fill="#E4D2C4"/>
<path d="M87.5902 10.7302C86.0036 10.7302 84.7036 10.2225 83.6898 9.20702C82.6759 8.14717 82.1689 6.86687 82.1689 5.36511C82.1689 3.86335 82.6759 2.64939 83.6898 1.58953C84.7475 0.529673 86.0475 0 87.5902 0C89.0004 0 90.2346 0.552125 91.2929 1.65587C92.3506 2.71572 92.8795 3.95214 92.8795 5.36511C92.8795 6.86636 92.3725 8.14717 91.3591 9.20702C90.3453 10.2225 89.0891 10.7302 87.5908 10.7302H87.5902Z" fill="#E4D2C4"/>
<path d="M108.911 10.7302C107.324 10.7302 106.024 10.2225 105.01 9.20702C103.996 8.14717 103.49 6.86687 103.49 5.36511C103.49 3.86335 103.997 2.64939 105.01 1.58953C106.068 0.529673 107.368 0 108.911 0C110.321 0 111.555 0.552125 112.613 1.65587C113.671 2.71572 114.2 3.95214 114.2 5.36511C114.2 6.86636 113.693 8.14717 112.679 9.20702C111.666 10.2225 110.409 10.7302 108.911 10.7302Z" fill="#E4D2C4"/>
<path d="M144.405 13.9085H153V42.0593H144.405V39.2109C144.14 40.1386 143.281 41.0219 141.827 41.8603C140.416 42.6553 138.675 43.0523 136.604 43.0523C132.813 43.0523 129.574 41.7057 126.885 39.0119C124.197 36.3181 122.83 32.7635 122.786 28.3475C122.742 23.9759 124.02 20.333 126.621 17.4183C129.221 14.4597 132.46 12.9584 136.34 12.914C138.323 12.8701 140.02 13.2013 141.43 13.9075C142.84 14.5699 143.832 15.4088 144.405 16.4247V13.9075V13.9085ZM133.563 32.5211C134.797 33.7575 136.251 34.376 137.926 34.376C139.601 34.376 141.034 33.78 142.223 32.5874C143.458 31.351 144.074 29.938 144.074 28.3485V27.8188C144.074 26.0528 143.479 24.5954 142.289 23.4473C141.099 22.2552 139.645 21.6587 137.926 21.6587C136.206 21.6587 134.73 22.2767 133.496 23.5136C132.306 24.7056 131.711 26.1849 131.711 27.9515C131.711 29.7181 132.328 31.2413 133.563 32.5216V32.5211Z" fill="#E4D2C4"/>
</svg>
