<svg width="263" height="99" viewBox="0 0 263 99" fill="none" xmlns="http://www.w3.org/2000/svg">
<path d="M25.6837 23.7969H58.5263V38.5988H48.8663C50.3812 41.7873 51.1395 45.1266 51.1395 48.6185C51.1395 55.6015 48.6392 61.5986 43.6387 66.608C38.6382 71.542 32.6155 74.0085 25.5697 74.0085C18.524 74.0085 12.5004 71.542 7.50076 66.608C2.50025 61.5977 0 55.6015 0 48.6176C0 41.6337 2.50025 35.941 7.50076 31.0834C12.5767 26.2257 18.6379 23.7969 25.6837 23.7969ZM18.2969 55.6769C20.3422 57.6505 22.767 58.6373 25.5697 58.6373C28.3724 58.6373 30.7596 57.6505 32.7295 55.6769C34.7747 53.7034 35.7978 51.35 35.7978 48.6176C35.7978 46.1125 34.7747 43.9117 32.7295 42.0136C30.7596 40.1163 28.3733 39.1672 25.5697 39.1672C22.7662 39.1672 20.3422 40.1163 18.2969 42.0136C16.327 43.9108 15.3425 46.1125 15.3425 48.6176C15.3425 51.35 16.327 53.7034 18.2969 55.6769ZM18.7519 81.5222C20.7218 83.3441 23.0327 84.2545 25.6846 84.2545C28.3365 84.2545 30.6474 83.3441 32.6173 81.5222C34.5871 79.7004 35.6856 77.3856 35.9127 74.5769H51.2543C51.0273 81.4845 48.4507 87.1772 43.5265 91.6559C38.6023 96.2101 32.655 98.4872 25.6846 98.4872C18.7142 98.4872 12.7669 96.2101 7.84266 91.6559C2.91667 87.1781 0.341023 81.4845 0.113967 74.5778H15.4556C15.6827 77.3864 16.7812 79.7021 18.751 81.5231L18.7519 81.5222Z" fill="#2D100A"/>
<path d="M108.021 23.9115H122.795V72.3013H108.021V67.4051C107.567 68.9997 106.089 70.5181 103.589 71.9592C101.165 73.3258 98.1719 74.0083 94.6109 74.0083C88.0955 74.0083 82.5269 71.6934 77.9051 67.063C73.2833 62.4325 70.9347 56.3222 70.8593 48.7314C70.7831 41.2168 72.9809 34.9548 77.451 29.9445C81.9211 24.8588 87.4897 22.2782 94.1568 22.2019C97.5661 22.1265 100.483 22.6958 102.908 23.9097C105.332 25.0483 107.037 26.4903 108.021 28.2367V23.9097V23.9115ZM89.3833 55.9056C91.5048 58.0309 94.0051 59.094 96.8841 59.094C99.763 59.094 102.225 58.0695 104.271 56.0196C106.392 53.8943 107.453 51.4655 107.453 48.7331V47.8226C107.453 44.7868 106.43 42.2817 104.385 40.3081C102.34 38.2591 99.8393 37.2337 96.8841 37.2337C93.9288 37.2337 91.3917 38.2959 89.2702 40.4221C87.225 42.4711 86.2019 45.014 86.2019 48.0507C86.2019 51.0874 87.2618 53.7057 89.3833 55.9065V55.9056Z" fill="#2D100A"/>
<path d="M157.828 23.9102H143.072V72.3H157.828V23.9102Z" fill="#2D100A"/>
<path d="M194.477 23.9668H179.721V72.3566H194.477V23.9668Z" fill="#2D100A"/>
<path d="M150.564 18.4447C147.837 18.4447 145.602 17.572 143.859 15.8264C142.117 14.0046 141.245 11.8038 141.245 9.22237C141.245 6.64091 142.117 4.55417 143.859 2.73233C145.678 0.910483 147.912 0 150.564 0C152.988 0 155.11 0.949078 156.929 2.84636C158.747 4.6682 159.656 6.79354 159.656 9.22237C159.656 11.8029 158.785 14.0046 157.043 15.8264C155.3 17.572 153.141 18.4447 150.565 18.4447H150.564Z" fill="#2D100A"/>
<path d="M187.214 18.4447C184.485 18.4447 182.251 17.572 180.508 15.8264C178.765 14.0046 177.895 11.8038 177.895 9.22237C177.895 6.64091 178.766 4.55417 180.508 2.73233C182.326 0.910483 184.561 0 187.214 0C189.637 0 191.759 0.949078 193.577 2.84636C195.395 4.6682 196.305 6.79354 196.305 9.22237C196.305 11.8029 195.433 14.0046 193.691 15.8264C191.948 17.572 189.789 18.4447 187.214 18.4447Z" fill="#2D100A"/>
<path d="M248.226 23.9115H263V72.3013H248.226V67.4051C247.771 68.9997 246.294 70.5181 243.794 71.9592C241.37 73.3258 238.376 74.0083 234.816 74.0083C228.301 74.0083 222.732 71.6934 218.11 67.063C213.489 62.4325 211.14 56.3222 211.064 48.7314C210.988 41.2168 213.185 34.9548 217.656 29.9445C222.126 24.8588 227.694 22.2782 234.362 22.2019C237.771 22.1265 240.688 22.6958 243.113 23.9097C245.537 25.0483 247.242 26.4903 248.226 28.2367V23.9097V23.9115ZM229.588 55.9056C231.71 58.0309 234.209 59.094 237.089 59.094C239.969 59.094 242.431 58.0695 244.476 56.0196C246.597 53.8943 247.657 51.4655 247.657 48.7331V47.8226C247.657 44.7868 246.634 42.2817 244.589 40.3081C242.544 38.2591 240.044 37.2337 237.088 37.2337C234.133 37.2337 231.595 38.2959 229.474 40.4221C227.429 42.4711 226.406 45.014 226.406 48.0507C226.406 51.0874 227.467 53.7057 229.588 55.9065V55.9056Z" fill="#2D100A"/>
</svg>
