<svg width="332" height="271" viewBox="0 0 332 271" fill="none" xmlns="http://www.w3.org/2000/svg">
<path d="M99.9789 144.074H11.0146V435.655H99.9789V144.074Z" fill="#DAC4B4"/>
<path d="M320.936 144.422H231.972V436.003H320.936V144.422Z" fill="#DAC4B4"/>
<path d="M56.184 111.142C39.7411 111.142 26.2685 105.883 15.7611 95.3649C5.25368 84.3871 0 71.126 0 55.5709C0 40.0159 5.25368 27.4419 15.7611 16.4641C26.7231 5.48627 40.1956 0 56.184 0C70.7982 0 83.589 5.71883 94.5563 17.1512C105.518 28.129 110.999 40.9356 110.999 55.5709C110.999 71.1207 105.745 84.3871 95.2433 95.3649C84.7359 105.883 71.7179 111.142 56.1893 111.142H56.184Z" fill="url(#paint0_linear_257_2564)"/>
<path d="M277.141 111.142C260.693 111.142 247.22 105.883 236.713 95.3649C226.205 84.3871 220.957 71.126 220.957 55.5709C220.957 40.0159 226.211 27.4419 236.713 16.4641C247.675 5.48627 261.147 0 277.141 0C291.755 0 304.546 5.71883 315.508 17.1512C326.47 28.129 331.951 40.9356 331.951 55.5709C331.951 71.1207 326.697 84.3871 316.195 95.3649C305.688 105.883 292.67 111.142 277.141 111.142Z" fill="url(#paint1_linear_257_2564)"/>
<defs>
<linearGradient id="paint0_linear_257_2564" x1="0" y1="56" x2="111" y2="56" gradientUnits="userSpaceOnUse">
<stop stop-color="#DAC4B4"/>
<stop offset="1" stop-color="#2D100A"/>
</linearGradient>
<linearGradient id="paint1_linear_257_2564" x1="332" y1="56" x2="221" y2="56" gradientUnits="userSpaceOnUse">
<stop stop-color="#DAC4B4"/>
<stop offset="1" stop-color="#2D100A"/>
</linearGradient>
</defs>
</svg>
