<svg width="153" height="101" viewBox="0 0 153 101" fill="none" xmlns="http://www.w3.org/2000/svg">
<path d="M150.854 5.5785C149.904 5.3411 148.598 5.1037 146.106 6.7654C142.901 9.0205 139.459 12.6999 135.186 16.1419C123.08 26.1119 115.84 27.2989 106.938 27.0615C93.2886 26.5867 79.8765 14.1242 69.6691 7.7149C63.7346 4.0355 53.2898 0 42.6077 0C33.9433 0 29.433 1.1869 23.0237 4.5102C18.2761 7.0027 14.5967 9.7326 11.1546 12.9373C5.45749 18.6344 1.42201 27.2988 0.709866 29.7914C0.235103 32.0465 -0.833113 34.539 1.18463 35.9633C2.37154 36.9128 4.1519 36.438 5.93226 35.2511C8.42476 33.7081 9.61167 32.2839 12.1042 30.2661C18.0387 25.0437 21.8368 22.5512 28.2461 20.0587C31.4507 18.8718 37.3853 17.8036 42.1329 17.5662C53.5272 17.3288 62.429 24.569 69.9065 30.0287C75.8411 34.3016 91.7456 44.3903 106.701 44.6277C123.792 45.1024 131.982 37.981 137.442 32.1652C144.919 24.4503 147.174 20.2961 149.548 15.5485C150.735 13.056 152.278 9.8513 152.753 7.8336C152.634 6.7654 151.803 6.0532 150.854 5.5785Z" fill="url(#paint0_linear_1_19)"/>
<path d="M150.854 61.8372C149.904 61.5999 148.598 61.3625 146.106 63.0241C142.901 65.2793 139.459 68.9587 135.186 72.4007C123.08 82.3707 115.84 83.5576 106.938 83.3203C93.2886 82.8455 79.8765 70.383 69.6691 63.9737C63.7346 60.2943 53.2898 56.2588 42.6077 56.2588C33.9433 56.2588 29.433 57.4457 23.0237 60.769C18.2761 63.2615 14.5967 65.9914 11.1546 69.1961C5.45749 74.8932 1.42201 83.5576 0.709866 86.0501C0.235103 88.3053 -0.833113 90.798 1.18463 92.222C2.37154 93.172 4.1519 92.697 5.93226 91.51C8.42476 89.967 9.61167 88.5426 12.1042 86.5249C18.0387 81.3025 21.8368 78.81 28.2461 76.3175C31.4507 75.1306 37.3853 74.0624 42.1329 73.825C53.5272 73.5876 62.429 80.8278 69.9065 86.2875C75.8411 90.56 91.7456 100.649 106.701 100.886C123.792 101.361 131.982 94.24 137.442 88.424C144.919 80.7091 147.174 76.5549 149.548 71.8073C150.735 69.3148 152.278 66.1101 152.753 64.0924C152.634 63.1428 151.803 62.4307 150.854 61.8372Z" fill="url(#paint1_linear_1_19)"/>
<defs>
<linearGradient id="paint0_linear_1_19" x1="-0.00227852" y1="22.3257" x2="152.753" y2="22.3257" gradientUnits="userSpaceOnUse">
<stop stop-color="#FF806B"/>
<stop offset="0.5" stop-color="#7D3D80"/>
<stop offset="0.81" stop-color="#332573"/>
<stop offset="1" stop-color="#07176C"/>
</linearGradient>
<linearGradient id="paint1_linear_1_19" x1="-0.00227852" y1="78.5845" x2="1.18463" y2="78.5845" gradientUnits="userSpaceOnUse">
<stop stop-color="#FF806B"/>
<stop offset="0.5" stop-color="#7D3D80"/>
<stop offset="0.81" stop-color="#332573"/>
<stop offset="1" stop-color="#07176C"/>
</linearGradient>
</defs>
</svg>
