<svg width="53" height="69" viewBox="0 0 53 69" fill="none" xmlns="http://www.w3.org/2000/svg">
<g id="logo ii">
<path id="Vector" d="M15.8222 22.8008H1.7431V68.9452H15.8222V22.8008Z" fill="#DAC4B4"/>
<path id="Vector_2" d="M50.7901 22.8555H36.7109V68.9999H50.7901V22.8555Z" fill="#DAC4B4"/>
<path id="Vector_3" d="M8.89145 17.5889C6.28926 17.5889 4.15715 16.7566 2.49429 15.0921C0.831426 13.3547 0 11.2561 0 8.79443C0 6.33276 0.831426 4.34284 2.49429 2.60554C4.22908 0.868234 6.36119 0 8.89145 0C11.2042 0 13.2284 0.905038 14.9641 2.71428C16.6989 4.45158 17.5663 6.4783 17.5663 8.79443C17.5663 11.2553 16.7348 13.3547 15.0728 15.0921C13.41 16.7566 11.3498 17.5889 8.89229 17.5889H8.89145Z" fill="url(#paint0_linear_257_3144)"/>
<path id="Vector_4" d="M43.8592 17.5889C41.2561 17.5889 39.124 16.7566 37.4612 15.0921C35.7983 13.3547 34.9677 11.2561 34.9677 8.79443C34.9677 6.33276 35.7991 4.34284 37.4612 2.60554C39.196 0.868234 41.3281 0 43.8592 0C46.172 0 48.1962 0.905038 49.931 2.71428C51.6658 4.45158 52.5331 6.4783 52.5331 8.79443C52.5331 11.2553 51.7017 13.3547 50.0397 15.0921C48.3768 16.7566 46.3167 17.5889 43.8592 17.5889Z" fill="url(#paint1_linear_257_3144)"/>
</g>
<defs>
<linearGradient id="paint0_linear_257_3144" x1="0" y1="8.86233" x2="17.5664" y2="8.86233" gradientUnits="userSpaceOnUse">
<stop stop-color="#DAC4B4"/>
<stop offset="1" stop-color="#2D100A"/>
</linearGradient>
<linearGradient id="paint1_linear_257_3144" x1="52.5409" y1="8.86233" x2="34.9745" y2="8.86233" gradientUnits="userSpaceOnUse">
<stop stop-color="#DAC4B4"/>
<stop offset="1" stop-color="#2D100A"/>
</linearGradient>
</defs>
</svg>
