<svg width="34" height="45" viewBox="0 0 34 45" fill="none" xmlns="http://www.w3.org/2000/svg">
<path d="M10.2401 14.9297H1.12793V44.7948H10.2401V14.9297Z" fill="#2D100A"/>
<path d="M32.8719 14.9648H23.7598V44.8299H32.8719V14.9648Z" fill="#2D100A"/>
<path d="M5.61451 0.17101C7.29867 0.17101 8.67859 0.709661 9.75481 1.78696C10.831 2.91136 11.3691 4.26963 11.3691 5.86285C11.3691 7.45607 10.831 8.74396 9.75481 9.86836C8.63204 10.9928 7.25212 11.5547 5.61451 11.5547C4.11765 11.5547 2.80756 10.9689 1.68424 9.79798C0.561466 8.67358 7.95215e-05 7.36187 7.96526e-05 5.86285C7.97918e-05 4.27017 0.538193 2.91136 1.61387 1.78696C2.69009 0.709661 4.02346 0.171009 5.61397 0.17101L5.61451 0.17101Z" fill="url(#paint0_linear_257_3449)"/>
<path d="M28.386 11.5556C26.7013 11.5556 25.3214 11.0169 24.2451 9.9396C23.1689 8.8152 22.6313 7.45693 22.6313 5.86371C22.6313 4.2705 23.1695 2.98261 24.2451 1.85821C25.3679 0.733805 26.7478 0.171875 28.386 0.171875C29.8828 0.171875 31.1929 0.757625 32.3157 1.92858C33.4385 3.05298 33.9999 4.36469 33.9999 5.86371C33.9999 7.45639 33.4618 8.8152 32.3861 9.9396C31.3099 11.0169 29.9765 11.5556 28.386 11.5556Z" fill="url(#paint1_linear_257_3449)"/>
<defs>
<linearGradient id="paint0_linear_257_3449" x1="11.3691" y1="5.8189" x2="-3.69502e-06" y2="5.8189" gradientUnits="userSpaceOnUse">
<stop stop-color="#DAC4B4"/>
<stop offset="1" stop-color="#2D100A"/>
</linearGradient>
<linearGradient id="paint1_linear_257_3449" x1="34.0049" y1="5.90766" x2="22.6357" y2="5.90766" gradientUnits="userSpaceOnUse">
<stop stop-color="#2D100A"/>
<stop offset="1" stop-color="#DAC4B4"/>
</linearGradient>
</defs>
</svg>
