<svg width="37" height="37" viewBox="0 0 37 37" fill="none" xmlns="http://www.w3.org/2000/svg">
<g id="Group 1728277939">
<g id="user icon">
<circle id="Ellipse 12" cx="18.8137" cy="18.1858" r="18.1858" fill="#2D100A"/>
<g id="Group 1728277908">
<path id="Vector" d="M18.8473 15.9982C21.5187 15.9982 23.6843 13.8326 23.6843 11.1612C23.6843 8.48982 21.5187 6.32422 18.8473 6.32422C16.1759 6.32422 14.0103 8.48982 14.0103 11.1612C14.0103 13.8326 16.1759 15.9982 18.8473 15.9982Z" fill="#E4D2C4"/>
<path id="Vector_2" d="M21.0793 17.4883H16.6144C15.0355 17.4883 13.5212 18.1155 12.4048 19.2319C11.2883 20.3484 10.6611 21.8626 10.6611 23.4415V27.9064C10.6611 28.1038 10.7395 28.2931 10.8791 28.4326C11.0186 28.5722 11.2079 28.6506 11.4053 28.6506H26.2884C26.4857 28.6506 26.675 28.5722 26.8146 28.4326C26.9541 28.2931 27.0325 28.1038 27.0325 27.9064V23.4415C27.0325 21.8626 26.4053 20.3484 25.2889 19.2319C24.1724 18.1155 22.6582 17.4883 21.0793 17.4883Z" fill="#E4D2C4"/>
</g>
</g>
</g>
</svg>
