<svg width="25" height="24" viewBox="0 0 25 24" fill="none" xmlns="http://www.w3.org/2000/svg">
<g id="Union">
<path fill-rule="evenodd" clip-rule="evenodd" d="M8.99732 10.5437C8.80749 9.56037 8.70808 8.54483 8.70808 7.50606V0.378853H24.6395V23.4375C20.7817 23.4375 17.2441 22.0663 14.4876 19.7847C11.7376 21.6168 7.32788 23.3584 2.00014 22.3897C3.46751 21.7608 9.12736 17.9876 8.91773 10.4411C8.94318 10.4761 8.96972 10.5103 8.99732 10.5437Z" fill="white"/>
<path d="M8.99732 10.5437L8.74553 10.7517L9.31804 10.4818L8.99732 10.5437ZM8.70808 0.378853V0.0522209H8.38144V0.378853H8.70808ZM24.6395 0.378853H24.9661V0.0522209H24.6395V0.378853ZM24.6395 23.4375V23.7641H24.9661V23.4375H24.6395ZM14.4876 19.7847L14.6959 19.533L14.5088 19.3781L14.3066 19.5128L14.4876 19.7847ZM2.00014 22.3897L1.87147 22.0895L0.874054 22.5169L1.94171 22.711L2.00014 22.3897ZM8.91773 10.4411L9.18189 10.249L8.56196 9.39658L8.59123 10.4502L8.91773 10.4411ZM8.38144 7.50606C8.38144 8.56571 8.48286 9.60198 8.67661 10.6056L9.31804 10.4818C9.13212 9.51875 9.03471 8.52394 9.03471 7.50606H8.38144ZM8.38144 0.378853V7.50606H9.03471V0.378853H8.38144ZM24.6395 0.0522209H8.70808V0.705485H24.6395V0.0522209ZM24.9661 23.4375V0.378853H24.3129V23.4375H24.9661ZM14.2794 20.0363C17.0923 22.3646 20.7029 23.7641 24.6395 23.7641V23.1109C20.8605 23.1109 17.396 21.768 14.6959 19.533L14.2794 20.0363ZM1.94171 22.711C7.37349 23.6986 11.8681 21.9223 14.6687 20.0565L14.3066 19.5128C11.6071 21.3112 7.28227 23.0181 2.05857 22.0683L1.94171 22.711ZM8.59123 10.4502C8.69353 14.1333 7.36538 16.8897 5.83275 18.8054C4.29371 20.7292 2.55512 21.7965 1.87147 22.0895L2.12881 22.6899C2.91253 22.354 4.73754 21.2202 6.34287 19.2135C7.9546 17.1989 9.35155 14.2954 9.24424 10.432L8.59123 10.4502ZM9.24912 10.3356C9.22573 10.3073 9.20331 10.2784 9.18189 10.249L8.65357 10.6332C8.68305 10.6738 8.71372 10.7132 8.74553 10.7517L9.24912 10.3356Z" fill="white"/>
</g>
</svg>
