<svg width="25" height="25" viewBox="0 0 25 25" fill="none" xmlns="http://www.w3.org/2000/svg">
<g id="Union">
<path fill-rule="evenodd" clip-rule="evenodd" d="M16.3364 10.7879C16.5262 9.80462 16.6256 8.78908 16.6256 7.75032V0.623106H0.694218V23.6817C4.55202 23.6817 8.08957 22.3105 10.8461 20.0289C13.5961 21.861 18.0058 23.6026 23.3336 22.6339C21.8662 22.0051 16.2064 18.2318 16.416 10.6854C16.3905 10.7204 16.364 10.7545 16.3364 10.7879Z" fill="#DAC4B4"/>
<path d="M16.3364 10.7879L16.5882 10.996L16.0157 10.726L16.3364 10.7879ZM16.6256 0.623106V0.296474H16.9523V0.623106H16.6256ZM0.694218 0.623106H0.367586V0.296474H0.694218V0.623106ZM0.694218 23.6817V24.0084H0.367586V23.6817H0.694218ZM10.8461 20.0289L10.6378 19.7773L10.825 19.6224L11.0272 19.7571L10.8461 20.0289ZM23.3336 22.6339L23.4622 22.3337L24.4597 22.7612L23.392 22.9553L23.3336 22.6339ZM16.416 10.6854L16.1518 10.4932L16.7718 9.64083L16.7425 10.6944L16.416 10.6854ZM16.9523 7.75032C16.9523 8.80997 16.8509 9.84624 16.6571 10.8499L16.0157 10.726C16.2016 9.763 16.299 8.76819 16.299 7.75032H16.9523ZM16.9523 0.623106V7.75032H16.299V0.623106H16.9523ZM0.694218 0.296474H16.6256V0.949738H0.694218V0.296474ZM0.367586 23.6817V0.623106H1.02085V23.6817H0.367586ZM11.0543 20.2805C8.24143 22.6088 4.63083 24.0084 0.694218 24.0084V23.3551C4.47322 23.3551 7.93771 22.0122 10.6378 19.7773L11.0543 20.2805ZM23.392 22.9553C17.9602 23.9429 13.4656 22.1666 10.665 20.3007L11.0272 19.7571C13.7266 21.5555 18.0514 23.2623 23.2751 22.3126L23.392 22.9553ZM16.7425 10.6944C16.6402 14.3775 17.9683 17.1339 19.501 19.0497C21.04 20.9735 22.7786 22.0407 23.4622 22.3337L23.2049 22.9342C22.4212 22.5983 20.5962 21.4644 18.9908 19.4578C17.3791 17.4431 15.9822 14.5397 16.0895 10.6763L16.7425 10.6944ZM16.0846 10.5799C16.108 10.5516 16.1304 10.5227 16.1518 10.4932L16.6801 10.8775C16.6507 10.918 16.62 10.9575 16.5882 10.996L16.0846 10.5799Z" fill="#DAC4B4"/>
</g>
</svg>
