<svg width="82" height="82" viewBox="0 0 82 82" fill="none" xmlns="http://www.w3.org/2000/svg">
<path id="Vector" d="M40.0685 0.00011848C52.0879 0.000119531 61.936 3.84432 69.6167 11.5327C77.2974 19.5573 81.1377 29.2508 81.1377 40.6212C81.1377 51.9915 77.2974 61.1828 69.6167 69.2073C61.6038 77.2319 51.7557 81.2422 40.0685 81.2422C29.3859 81.2422 20.0361 77.0619 12.0193 68.7051C4.0064 60.6805 -5.84192e-05 51.3192 -5.7484e-05 40.6211C-5.64903e-05 29.2547 3.8403 19.5572 11.5171 11.5327C19.1978 3.84432 28.7136 0.000117487 40.0647 0.00011848L40.0685 0.00011848Z" fill="url(#paint0_linear_257_3117)"/>
<defs>
<linearGradient id="paint0_linear_257_3117" x1="81.1377" y1="40.3075" x2="-0.000652312" y2="40.3075" gradientUnits="userSpaceOnUse">
<stop stop-color="#DAC4B4"/>
<stop offset="1" stop-color="#2D100A"/>
</linearGradient>
</defs>
</svg>
